# xmcd
#
# Track frame offsets:
#	150
#	34078
#	45587
#	66738
#	91977
#	115455
#	140662
#	165091
#	196526
#	232820
#	259062
#	283405
#
# Disc length: 4078 seconds
#
# Revision: 0
# Processed by: cddbd v1.5.2PL0 Copyright (c) Steve Scherf et al.
# Submitted via: EasyCDDAExtractor 15.2.1.1
#
DISCID=a70fec0c
DTITLE=Eric Gales - Transformation
DYEAR=2011
DGENRE=Blues
TTITLE0=Railroaded
TTITLE1=Double Dippin'
TTITLE2=Tortured Mind
TTITLE3=I Pity the Fool
TTITLE4=Altered Destiny
TTITLE5=Time Waits For No One
TTITLE6=Catchin Up With the Past
TTITLE7=Transformation
TTITLE8=Sometimes Wrong Feels Right
TTITLE9=Sea of Bad Blood
TTITLE10=Too Late To Cry
TTITLE11=I Wouldn't Treat A Dog That Way
EXTD=
EXTT0=
EXTT1=
EXTT2=
EXTT3=
EXTT4=
EXTT5=
EXTT6=
EXTT7=
EXTT8=
EXTT9=
EXTT10=
EXTT11=
PLAYORDER=
